<svg xmlns="http://www.w3.org/2000/svg" xmlns:xlink="http://www.w3.org/1999/xlink" width="536" zoomAndPan="magnify" viewBox="0 0 402 373.499994" height="498" preserveAspectRatio="xMidYMid meet" version="1.2"><defs><clipPath id="4593f82c92"><path d="M 0.269531 0 L 401 0 L 401 67.898438 L 0.269531 67.898438 Z M 0.269531 0 "/></clipPath><clipPath id="b57d58cf80"><path d="M 34.21875 0 L 367.039062 0 C 376.042969 0 384.675781 3.578125 391.042969 9.945312 C 397.410156 16.308594 400.988281 24.945312 400.988281 33.949219 C 400.988281 42.953125 397.410156 51.585938 391.042969 57.953125 C 384.675781 64.320312 376.042969 67.898438 367.039062 67.898438 L 34.21875 67.898438 C 25.214844 67.898438 16.578125 64.320312 10.210938 57.953125 C 3.84375 51.585938 0.269531 42.953125 0.269531 33.949219 C 0.269531 24.945312 3.84375 16.308594 10.210938 9.945312 C 16.578125 3.578125 25.214844 0 34.21875 0 Z M 34.21875 0 "/></clipPath><clipPath id="860d2f2c56"><path d="M 0.269531 132.394531 L 172.664062 132.394531 L 172.664062 200.292969 L 0.269531 200.292969 Z M 0.269531 132.394531 "/></clipPath><clipPath id="157e6c06ed"><path d="M 34.21875 132.394531 L 138.617188 132.394531 C 147.621094 132.394531 156.257812 135.972656 162.625 142.339844 C 168.992188 148.707031 172.566406 157.339844 172.566406 166.34375 C 172.566406 175.347656 168.992188 183.984375 162.625 190.351562 C 156.257812 196.71875 147.621094 200.292969 138.617188 200.292969 L 34.21875 200.292969 C 25.214844 200.292969 16.578125 196.71875 10.210938 190.351562 C 3.84375 183.984375 0.269531 175.347656 0.269531 166.34375 C 0.269531 157.339844 3.84375 148.707031 10.210938 142.339844 C 16.578125 135.972656 25.214844 132.394531 34.21875 132.394531 Z M 34.21875 132.394531 "/></clipPath><clipPath id="0a31a91d33"><path d="M 222.757812 132.382812 L 395.152344 132.382812 L 395.152344 200.28125 L 222.757812 200.28125 Z M 222.757812 132.382812 "/></clipPath><clipPath id="652864039e"><path d="M 361.203125 200.28125 L 256.804688 200.28125 C 247.800781 200.28125 239.164062 196.703125 232.796875 190.335938 C 226.429688 183.96875 222.855469 175.335938 222.855469 166.332031 C 222.855469 157.328125 226.429688 148.691406 232.796875 142.324219 C 239.164062 135.957031 247.800781 132.382812 256.804688 132.382812 L 361.203125 132.382812 C 370.207031 132.382812 378.84375 135.957031 385.210938 142.324219 C 391.578125 148.691406 395.152344 157.328125 395.152344 166.332031 C 395.152344 175.335938 391.578125 183.96875 385.210938 190.335938 C 378.84375 196.703125 370.207031 200.28125 361.203125 200.28125 Z M 361.203125 200.28125 "/></clipPath><clipPath id="6f75244577"><path d="M 222.875 132.125 L 290.773438 132.125 L 290.773438 372.953125 L 222.875 372.953125 Z M 222.875 132.125 "/></clipPath><clipPath id="14ef1b1e5b"><path d="M 222.875 339.003906 L 222.875 166.335938 C 222.875 157.332031 226.453125 148.699219 232.816406 142.332031 C 239.183594 135.964844 247.820312 132.386719 256.824219 132.386719 C 265.828125 132.386719 274.460938 135.964844 280.828125 142.332031 C 287.195312 148.699219 290.773438 157.332031 290.773438 166.335938 L 290.773438 339.003906 C 290.773438 348.007812 287.195312 356.640625 280.828125 363.007812 C 274.460938 369.375 265.828125 372.953125 256.824219 372.953125 C 247.820312 372.953125 239.183594 369.375 232.816406 363.007812 C 226.453125 356.640625 222.875 348.007812 222.875 339.003906 Z M 222.875 339.003906 "/></clipPath><clipPath id="dd91e7b78c"><path d="M 104.675781 132.125 L 172.574219 132.125 L 172.574219 372.953125 L 104.675781 372.953125 Z M 104.675781 132.125 "/></clipPath><clipPath id="0bcfcd9dac"><path d="M 104.675781 339.003906 L 104.675781 166.335938 C 104.675781 157.332031 108.253906 148.699219 114.617188 142.332031 C 120.984375 135.964844 129.621094 132.386719 138.625 132.386719 C 147.628906 132.386719 156.261719 135.964844 162.628906 142.332031 C 168.996094 148.699219 172.574219 157.332031 172.574219 166.335938 L 172.574219 339.003906 C 172.574219 348.007812 168.996094 356.640625 162.628906 363.007812 C 156.261719 369.375 147.628906 372.953125 138.625 372.953125 C 129.621094 372.953125 120.984375 369.375 114.617188 363.007812 C 108.253906 356.640625 104.675781 348.007812 104.675781 339.003906 Z M 104.675781 339.003906 "/></clipPath></defs><g id="eec93bcc07"><g clip-rule="nonzero" clip-path="url(#4593f82c92)"><g clip-rule="nonzero" clip-path="url(#b57d58cf80)"><path style=" stroke:none;fill-rule:nonzero;fill:#30d5c8;fill-opacity:1;" d="M 0.269531 0 L 401.023438 0 L 401.023438 67.898438 L 0.269531 67.898438 Z M 0.269531 0 "/></g></g><g clip-rule="nonzero" clip-path="url(#860d2f2c56)"><g clip-rule="nonzero" clip-path="url(#157e6c06ed)"><path style=" stroke:none;fill-rule:nonzero;fill:#30d5c8;fill-opacity:1;" d="M 0.269531 132.394531 L 172.664062 132.394531 L 172.664062 200.292969 L 0.269531 200.292969 Z M 0.269531 132.394531 "/></g></g><g clip-rule="nonzero" clip-path="url(#0a31a91d33)"><g clip-rule="nonzero" clip-path="url(#652864039e)"><path style=" stroke:none;fill-rule:nonzero;fill:#30d5c8;fill-opacity:1;" d="M 395.152344 200.28125 L 222.757812 200.28125 L 222.757812 132.382812 L 395.152344 132.382812 Z M 395.152344 200.28125 "/></g></g><g clip-rule="nonzero" clip-path="url(#6f75244577)"><g clip-rule="nonzero" clip-path="url(#14ef1b1e5b)"><path style=" stroke:none;fill-rule:nonzero;fill:#30d5c8;fill-opacity:1;" d="M 222.875 372.953125 L 222.875 132.390625 L 290.773438 132.390625 L 290.773438 372.953125 Z M 222.875 372.953125 "/></g></g><g clip-rule="nonzero" clip-path="url(#dd91e7b78c)"><g clip-rule="nonzero" clip-path="url(#0bcfcd9dac)"><path style=" stroke:none;fill-rule:nonzero;fill:#30d5c8;fill-opacity:1;" d="M 104.675781 372.953125 L 104.675781 132.390625 L 172.574219 132.390625 L 172.574219 372.953125 Z M 104.675781 372.953125 "/></g></g></g></svg>